<svg width="1920" height="1080" viewBox="0 0 1920 1080" xmlns="http://www.w3.org/2000/svg"><rect width="1920" height="1080" fill="#153066"/><path d="M 0,1080 C 0,1080 0,154 0,154 C 51.13550450712417,174.03663855772027 102.27100901424834,194.07327711544053 164,201 C 225.72899098575166,207.92672288455947 298.05146845013087,201.74353009595814 376,192 C 453.94853154986913,182.25646990404186 537.5231171852283,168.95260250072698 600,166 C 662.4768828147717,163.04739749927302 703.8560628089559,170.44605990113408 773,171 C 842.1439371910441,171.55394009886592 939.0526315789473,165.26315789473682 995,174 C 1050.9473684210527,182.73684210526318 1065.9334108752544,206.5013085199186 1116,210 C 1166.0665891247456,213.4986914800814 1251.2137249200348,196.7316080255888 1322,176 C 1392.7862750799652,155.2683919744112 1449.2116894446062,130.57225937772608 1509,125 C 1568.7883105553938,119.42774062227392 1631.9395173015412,132.97935446350684 1701,141 C 1770.0604826984588,149.02064553649316 1845.0302413492295,151.51032276824657 1920,154 C 1920,154 1920,1080 1920,1080 Z" fill="#1ca39c" opacity="0.08571428571428572"/><path d="M 0,1080 C 0,1080 0,308 0,308 C 65.5919003938777,318.1899997356526 131.1838007877554,328.3799994713051 201,335 C 270.8161992122446,341.6200005286949 344.85669724285606,344.6700018504322 402,329 C 459.14330275714394,313.3299981495678 499.38941024082044,278.93999312696604 560,285 C 620.6105897591796,291.06000687303396 701.585661793862,337.57002564170347 766,359 C 830.414338206138,380.42997435829653 878.267942583732,376.77990430622015 931,348 C 983.732057416268,319.22009569377985 1041.34256787121,265.3103571334161 1119,269 C 1196.65743212879,272.6896428665839 1294.3617859314286,333.97866716011526 1359,333 C 1423.6382140685714,332.02133283988474 1455.210288403077,268.7749742261228 1513,269 C 1570.789711596923,269.2250257738772 1654.7970604562638,332.92143593539345 1727,350 C 1799.2029395437362,367.07856406460655 1859.601469771868,337.5392820323033 1920,308 C 1920,308 1920,1080 1920,1080 Z" fill="#1ca39c" opacity="0.17142857142857143"/><path d="M 0,1080 C 0,1080 0,462 0,462 C 68.64743979486639,449.1442676253668 137.29487958973277,436.2885352507336 195,453 C 252.70512041026723,469.7114647492664 299.46792143593535,515.9901266224325 371,512 C 442.53207856406465,508.0098733775675 538.8334346665257,453.75095825953633 600,445 C 661.1665653334743,436.24904174046367 687.198339897962,473.00604033942216 742,479 C 796.801660102038,484.99395966057784 880.3732057416269,460.2248803827751 954,439 C 1027.6267942583731,417.7751196172249 1091.308837135531,400.0944381294774 1148,422 C 1204.691162864469,443.9055618705226 1254.3914457162496,505.3973670993154 1315,514 C 1375.6085542837504,522.6026329006846 1447.1253799994713,478.3160934732612 1516,464 C 1584.8746200005287,449.6839065267388 1651.1070342858654,465.3382590076397 1718,470 C 1784.8929657141346,474.6617409923603 1852.4464828570672,468.3308704961802 1920,462 C 1920,462 1920,1080 1920,1080 Z" fill="#1ca39c" opacity="0.2571428571428571"/><path d="M 0,1080 C 0,1080 0,617 0,617 C 43.65973195167727,580.979010811811 87.31946390335455,544.958021623622 162,568 C 236.68053609664545,591.041978376378 342.3818763382591,673.1469243173227 416,671 C 489.6181236617409,668.8530756826773 531.1530307436093,582.4542811070871 591,567 C 650.8469692563907,551.5457188929129 729.0060006873035,607.0359512543288 799,638 C 868.9939993126965,668.9640487456712 930.822966507177,675.4019138755981 982,671 C 1033.177033492823,666.5980861244019 1073.7021332839884,651.356393243279 1124,630 C 1174.2978667160116,608.643606756721 1234.368500356869,581.1725131512861 1317,589 C 1399.631499643131,596.8274868487139 1504.8238652885354,639.9535541515768 1567,644 C 1629.1761347114646,648.0464458484232 1648.3360384889897,613.0132702424066 1700,602 C 1751.6639615110103,590.9867297575934 1835.8319807555051,603.9933648787967 1920,617 C 1920,617 1920,1080 1920,1080 Z" fill="#1ca39c" opacity="0.34285714285714286"/><path d="M 0,1080 C 0,1080 0,771 0,771 C 47.12293478548203,778.2913902032832 94.24586957096406,785.5827804065664 171,782 C 247.75413042903594,778.4172195934336 354.1394565016257,763.9602685770176 419,773 C 483.8605434983743,782.0397314229824 507.196304422533,814.576145285363 552,810 C 596.803695577467,805.423854714637 663.0753258082422,763.7351502815301 742,752 C 820.9246741917578,740.2648497184699 912.5023923444976,758.4832535885167 974,777 C 1035.4976076555024,795.5167464114833 1066.9151048137671,814.331835364403 1135,813 C 1203.0848951862329,811.668164635597 1307.8371884004334,790.1894049538714 1368,775 C 1428.1628115995666,759.8105950461286 1443.7361415844987,750.9105448201116 1503,748 C 1562.2638584155013,745.0894551798884 1665.2182452615718,748.1684157656823 1742,753 C 1818.7817547384282,757.8315842343177 1869.3908773692142,764.4157921171588 1920,771 C 1920,771 1920,1080 1920,1080 Z" fill="#1ca39c" opacity="0.4285714285714286"/><path d="M 0,1080 C 0,1080 0,925 0,925 C 62.388960850141416,889.6880303470882 124.77792170028283,854.3760606941765 188,868 C 251.22207829971717,881.6239393058235 315.2772740490101,944.1837875703824 375,964 C 434.7227259509899,983.8162124296176 490.11298210367704,960.8887890242935 560,930 C 629.887017896323,899.1112109757065 714.2707975362817,860.2610563324433 778,871 C 841.7292024637183,881.7389436675567 884.8038277511962,942.0669856459331 938,951 C 991.1961722488038,959.9330143540669 1054.5138914589338,917.4710010838245 1133,902 C 1211.4861085410662,886.5289989161755 1305.140606413069,898.0490100187686 1368,917 C 1430.859393586931,935.9509899812314 1462.9236828887892,962.3329588411007 1516,967 C 1569.0763171112108,971.6670411588993 1643.1646620317745,954.6191546168283 1714,944 C 1784.8353379682255,933.3808453831717 1852.4176689841129,929.1904226915858 1920,925 C 1920,925 1920,1080 1920,1080 Z" fill="#1ca39c" opacity="0.5142857142857142"/><path d="M 0,1080 C 0,1080 0,1079 0,1079 C 54.24505009384336,1081.2343308044092 108.49010018768672,1083.4686616088186 183,1096 C 257.5098998123133,1108.5313383911814 352.2846493430965,1131.359684369135 413,1129 C 473.7153506569035,1126.640315630865 500.37130243992704,1099.092600914642 558,1100 C 615.628697560073,1100.907399085358 704.2301408971954,1130.2699119722965 781,1109 C 857.7698591028046,1087.7300880277035 922.7081339712918,1015.8277511961721 978,1025 C 1033.2918660287082,1034.1722488038279 1078.9373232176372,1124.4190832430145 1151,1136 C 1223.0626767823628,1147.5809167569855 1321.5425731581588,1080.4959158317693 1379,1050 C 1436.4574268418412,1019.5040841682306 1452.8923841497267,1025.5972534299083 1504,1031 C 1555.1076158502733,1036.4027465700917 1640.887890242935,1041.1150704485976 1716,1049 C 1791.112109757065,1056.8849295514024 1855.5560548785324,1067.9424647757012 1920,1079 C 1920,1079 1920,1080 1920,1080 Z" fill="#1ca39c" opacity="0.6"/></svg>